<svg width="124" height="47" viewBox="0 0 124 47" fill="none" xmlns="http://www.w3.org/2000/svg">
<path d="M12.9858 33.3899C12.5439 32.1544 11.6569 31.3101 10.632 31.3101H4.96293C4.96293 31.3101 2.37628 31.3117 1.99137 28.4241L0.721008 29.9479L1.02672 33.5705C1.02672 33.5705 1.63655 37.985 4.96293 39.0083H10.632C10.632 39.0083 12.0259 38.5774 12.5059 37.8805C12.9858 37.1835 13.2821 36.2205 13.2821 35.1576C13.2821 34.5209 13.1743 33.9189 12.9858 33.3899Z" fill="url(#paint0_linear_113_547)"/>
<path d="M30.5948 10.7323C30.5235 10.9636 30.4443 11.2043 30.3572 11.4483C30.3556 11.453 30.3541 11.4578 30.3525 11.4625C29.5605 13.6833 28.0763 16.308 25.4928 16.308H9.02404C3.38979 16.308 4.85498 21.288 4.88824 21.3989C-0.277148 8.42285 9.02404 8.42285 9.02404 8.42285H29.3878C30.1402 8.53531 31.0399 9.01051 30.5948 10.7323Z" fill="url(#paint1_linear_113_547)"/>
<path d="M22.0557 21.3246C21.4601 20.059 20.261 19.1941 18.8782 19.1941H10.6826H4.60013C4.60013 19.1941 -2.90957 19.1941 1.26108 32.1701C1.23415 32.0593 0.0509061 27.0792 4.60013 27.0792H10.6826H17.8946H18.8782C19.865 27.0792 20.76 26.6373 21.4078 25.9245C22.0557 25.2101 22.4549 24.2248 22.4549 23.1366C22.4549 22.484 22.3123 21.8679 22.0557 21.3246Z" fill="url(#paint2_linear_113_547)"/>
<path d="M48.8341 14.1809C48.1734 14.1809 47.5862 14.3767 47.0724 14.7682C46.5586 15.1352 46.3017 15.7713 46.3017 16.6766V18.6585H53.4951V10.1438H58.3764V36.7156H53.4951V22.8425H46.3017V36.7156H41.3837V22.8425H38.3742V18.6585H41.3837V16.6032C41.3837 14.5724 41.9709 12.9453 43.1453 11.7219C44.3443 10.4986 45.9469 9.88688 47.9532 9.88688C49.0298 9.88688 49.8372 10.0092 50.3755 10.2539V14.3644C49.9596 14.2421 49.4457 14.1809 48.8341 14.1809ZM68.465 36.7156H63.5837V18.6585H68.465V36.7156ZM62.9965 12.7496C62.9965 11.9177 63.2901 11.2081 63.8773 10.6209C64.4645 10.0092 65.1741 9.70337 66.006 9.70337C66.8379 9.70337 67.5475 9.99698 68.1347 10.5842C68.7219 11.1714 69.0155 11.8932 69.0155 12.7496C69.0155 13.557 68.7219 14.2543 68.1347 14.8416C67.5475 15.4288 66.8379 15.7224 66.006 15.7224C65.1741 15.7224 64.4645 15.4288 63.8773 14.8416C63.2901 14.2543 62.9965 13.557 62.9965 12.7496ZM81.8019 22.6223C80.5051 22.6223 79.4163 23.0749 78.5355 23.9802C77.6547 24.8855 77.2142 26.1211 77.2142 27.687C77.2142 29.253 77.6547 30.5008 78.5355 31.4306C79.4408 32.3359 80.5418 32.7885 81.8386 32.7885C82.9886 32.7885 83.9061 32.4949 84.5912 31.9077C85.2763 31.296 85.7412 30.5742 85.9859 29.7423L90.2799 31.1737C89.8395 32.8375 88.8853 34.2688 87.4172 35.4677C85.9492 36.6666 84.0896 37.2661 81.8386 37.2661C79.1472 37.2661 76.8839 36.3608 75.0489 34.5502C73.2383 32.7151 72.333 30.4274 72.333 27.687C72.333 24.9222 73.226 22.6345 75.0122 20.8239C76.8228 19.0133 79.0493 18.108 81.6918 18.108C83.9918 18.108 85.8758 18.7074 87.3438 19.9063C88.8119 21.0808 89.7539 22.5121 90.1698 24.2004L85.8024 25.6685C85.2151 23.6377 83.8817 22.6223 81.8019 22.6223ZM111.376 18.6585L104.146 26.2557L111.523 36.7156H105.541L100.769 29.8157L98.7508 31.9444V36.7156H93.8695V10.1438H98.7508V25.3749L104.99 18.6585H111.376ZM114.89 36.0183C114.229 35.3576 113.899 34.5624 113.899 33.6327C113.899 32.7029 114.229 31.9199 114.89 31.2838C115.55 30.6231 116.333 30.2928 117.239 30.2928C118.168 30.2928 118.963 30.6231 119.624 31.2838C120.285 31.9199 120.615 32.7029 120.615 33.6327C120.615 34.5624 120.285 35.3576 119.624 36.0183C118.963 36.6544 118.168 36.9725 117.239 36.9725C116.333 36.9725 115.55 36.6544 114.89 36.0183Z" fill="white"/>
<defs>
<linearGradient id="paint0_linear_113_547" x1="12.26" y1="28.4167" x2="1.81622" y2="38.3696" gradientUnits="userSpaceOnUse">
<stop stop-color="#E21C23"/>
<stop offset="1" stop-color="#AE1E22"/>
</linearGradient>
<linearGradient id="paint1_linear_113_547" x1="3.32635" y1="17.8141" x2="16.6338" y2="-0.0970053" gradientUnits="userSpaceOnUse">
<stop stop-color="#ED1A70"/>
<stop offset="1" stop-color="#F15D2F"/>
</linearGradient>
<linearGradient id="paint2_linear_113_547" x1="20.3713" y1="19.1534" x2="9.67017" y2="34.6984" gradientUnits="userSpaceOnUse">
<stop stop-color="#6AC28C"/>
<stop offset="1" stop-color="#38BDB1"/>
</linearGradient>
</defs>
</svg>
