<svg width="80" height="80" viewBox="0 0 80 80" fill="none" xmlns="http://www.w3.org/2000/svg">
<circle cx="40" cy="40" r="40" fill="white"/>
<path d="M29.704 35.396C28.864 36.716 28.444 38.696 28.444 41.336C28.444 43.976 28.864 45.956 29.704 47.276C30.496 48.548 31.672 49.184 33.232 49.184C34.768 49.184 35.932 48.548 36.724 47.276C37.588 45.98 38.02 44 38.02 41.336C38.02 38.672 37.588 36.692 36.724 35.396C35.932 34.124 34.768 33.488 33.232 33.488C31.672 33.488 30.496 34.124 29.704 35.396ZM25.528 49.652C24.16 47.564 23.476 44.792 23.476 41.336C23.476 37.88 24.16 35.108 25.528 33.02C27.28 30.404 29.848 29.096 33.232 29.096C36.616 29.096 39.172 30.404 40.9 33.02C42.292 35.132 42.988 37.904 42.988 41.336C42.988 44.768 42.292 47.54 40.9 49.652C39.172 52.268 36.616 53.576 33.232 53.576C29.848 53.576 27.28 52.268 25.528 49.652ZM55.9421 53H51.0101V37.376H45.3941V34.028C47.0741 34.004 48.4781 33.584 49.6061 32.768C50.7341 31.928 51.4181 30.884 51.6581 29.636H55.9421V53Z" fill="#2EBDB6"/>
</svg>
