<svg width="551" height="532" viewBox="0 0 551 532" fill="none" xmlns="http://www.w3.org/2000/svg">
<g clip-path="url(#clip0_2_3637)">
<g clip-path="url(#clip1_2_3637)">
<rect width="551" height="532" fill="#151F32"/>
<g clip-path="url(#clip2_2_3637)">
<path d="M460.267 45.1265L473.909 71.4258L498.688 87.6673L472.389 101.31L456.147 126.088L442.505 99.789L417.726 83.5476L444.026 69.9052L460.267 45.1265Z" fill="#2EBDB6"/>
<path d="M238.641 327.022L242.141 333.769L248.498 337.936L241.751 341.436L237.584 347.794L234.083 341.046L227.726 336.879L234.474 333.379L238.641 327.022Z" fill="#2EBDB6"/>
<path d="M275.334 -58.7402L288.976 -32.4409L313.755 -16.1994L287.455 -2.55705L271.214 22.2217L257.572 -4.07765L232.793 -20.3191L259.092 -33.9615L275.334 -58.7402Z" fill="#82D7D3"/>
<path d="M491.667 190L494.633 194.634L499.267 197.6L494.633 200.567L491.667 205.2L488.7 200.567L484.067 197.6L488.7 194.634L491.667 190Z" fill="#2EBDB6"/>
<path d="M366.267 410.4L373.683 421.984L385.267 429.4L373.683 436.816L366.267 448.4L358.85 436.816L347.267 429.4L358.85 421.984L366.267 410.4Z" fill="#C0EBE9"/>
<path d="M-98.4879 -75.9998C-151.474 -18.7514 -255.486 115.436 -247.647 194.198C-237.848 292.651 -112.512 270.417 -94.1333 264.209C-81.245 259.855 56.1146 190.916 81.1559 119.812C106.197 48.7069 29.9189 55.2318 22.3632 57.4582C-10.3083 67.0855 -60.382 88.0879 -108.287 181.071C-156.192 274.054 -163.814 342.971 -128.973 375.788C-101.101 402.042 -36.6388 399.685 23.0424 395.213C126.817 387.437 210.282 321.53 265.155 283.899C320.028 246.268 526.819 98.2979 623.355 29.0164" stroke="#2EBDB6" stroke-width="1.07583" stroke-linecap="round"/>
</g>
</g>
</g>
<defs>
<clipPath id="clip0_2_3637">
<rect width="551" height="532" rx="20.2667" fill="white"/>
</clipPath>
<clipPath id="clip1_2_3637">
<rect width="551" height="532" rx="20.2667" fill="white"/>
</clipPath>
<clipPath id="clip2_2_3637">
<rect width="551" height="532" fill="white"/>
</clipPath>
</defs>
</svg>
