<svg width="80" height="80" viewBox="0 0 80 80" fill="none" xmlns="http://www.w3.org/2000/svg">
<circle cx="40" cy="40" r="40" fill="white"/>
<path d="M26.704 35.396C25.864 36.716 25.444 38.696 25.444 41.336C25.444 43.976 25.864 45.956 26.704 47.276C27.496 48.548 28.672 49.184 30.232 49.184C31.768 49.184 32.932 48.548 33.724 47.276C34.588 45.98 35.02 44 35.02 41.336C35.02 38.672 34.588 36.692 33.724 35.396C32.932 34.124 31.768 33.488 30.232 33.488C28.672 33.488 27.496 34.124 26.704 35.396ZM22.528 49.652C21.16 47.564 20.476 44.792 20.476 41.336C20.476 37.88 21.16 35.108 22.528 33.02C24.28 30.404 26.848 29.096 30.232 29.096C33.616 29.096 36.172 30.404 37.9 33.02C39.292 35.132 39.988 37.904 39.988 41.336C39.988 44.768 39.292 47.54 37.9 49.652C36.172 52.268 33.616 53.576 30.232 53.576C26.848 53.576 24.28 52.268 22.528 49.652ZM49.2985 42.632L47.1025 39.176L53.2225 33.92H42.9985V29.636H59.5225V33.632L53.4745 38.672C55.3225 38.744 56.9065 39.44 58.2265 40.76C59.5705 42.056 60.2425 43.736 60.2425 45.8C60.2425 47.912 59.4265 49.736 57.7945 51.272C56.1625 52.784 53.9905 53.54 51.2785 53.54C48.6625 53.54 46.5385 52.82 44.9065 51.38C43.2745 49.916 42.3865 48.152 42.2425 46.088L47.0305 45.152C47.0785 46.352 47.4865 47.336 48.2545 48.104C49.0465 48.872 50.0545 49.256 51.2785 49.256C52.4785 49.256 53.4385 48.92 54.1585 48.248C54.8785 47.576 55.2385 46.736 55.2385 45.728C55.2385 44.648 54.8785 43.808 54.1585 43.208C53.4625 42.584 52.5505 42.272 51.4225 42.272C50.6785 42.272 49.9705 42.392 49.2985 42.632Z" fill="#E3B23C"/>
</svg>
