<svg width="80" height="80" viewBox="0 0 80 80" fill="none" xmlns="http://www.w3.org/2000/svg">
<circle cx="40" cy="40" r="40" fill="white"/>
<path d="M26.704 35.396C25.864 36.716 25.444 38.696 25.444 41.336C25.444 43.976 25.864 45.956 26.704 47.276C27.496 48.548 28.672 49.184 30.232 49.184C31.768 49.184 32.932 48.548 33.724 47.276C34.588 45.98 35.02 44 35.02 41.336C35.02 38.672 34.588 36.692 33.724 35.396C32.932 34.124 31.768 33.488 30.232 33.488C28.672 33.488 27.496 34.124 26.704 35.396ZM22.528 49.652C21.16 47.564 20.476 44.792 20.476 41.336C20.476 37.88 21.16 35.108 22.528 33.02C24.28 30.404 26.848 29.096 30.232 29.096C33.616 29.096 36.172 30.404 37.9 33.02C39.292 35.132 39.988 37.904 39.988 41.336C39.988 44.768 39.292 47.54 37.9 49.652C36.172 52.268 33.616 53.576 30.232 53.576C26.848 53.576 24.28 52.268 22.528 49.652ZM47.7874 38.672L43.0714 38.528C42.9514 38 42.8914 37.46 42.8914 36.908C42.8914 34.748 43.6594 32.912 45.1954 31.4C46.7314 29.864 48.8074 29.096 51.4234 29.096C53.9674 29.096 56.0074 29.828 57.5434 31.292C59.0794 32.732 59.8474 34.508 59.8474 36.62C59.8474 39.596 58.3354 42.008 55.3114 43.856L50.8114 46.592C49.7554 47.264 49.0834 47.972 48.7954 48.716H59.9914V53H42.7114C42.7354 50.816 43.1554 48.908 43.9714 47.276C44.8114 45.644 46.2274 44.228 48.2194 43.028L52.0714 40.724C53.9194 39.62 54.8434 38.276 54.8434 36.692C54.8434 35.804 54.5314 35.048 53.9074 34.424C53.3074 33.8 52.4434 33.488 51.3154 33.488C50.1154 33.488 49.1914 33.848 48.5434 34.568C47.9194 35.288 47.6074 36.224 47.6074 37.376C47.6074 37.808 47.6674 38.24 47.7874 38.672Z" fill="#151F32"/>
</svg>
